<?xml version="1.0" encoding="UTF-8"?>
<!DOCTYPE svg PUBLIC "-//W3C//DTD SVG 1.1//EN" "http://www.w3.org/Graphics/SVG/1.1/DTD/svg11.dtd">
<svg xmlns="http://www.w3.org/2000/svg" version="1.1" width="351px" height="362px" style="shape-rendering:geometricPrecision; text-rendering:geometricPrecision; image-rendering:optimizeQuality; fill-rule:evenodd; clip-rule:evenodd" xmlns:xlink="http://www.w3.org/1999/xlink">
<g><path style="opacity:0.998" fill="#a3d6e2" d="M 204.5,4.5 C 200.015,4.88392 195.348,5.05059 190.5,5C 197.477,6.53169 204.477,7.53169 211.5,8C 210.833,7.66667 210.167,7.33333 209.5,7C 210.793,6.50999 212.127,6.34332 213.5,6.5C 271.774,21.9427 312.94,57.2761 337,112.5C 343.59,130.952 347.424,149.952 348.5,169.5C 348.482,179.18 348.148,188.847 347.5,198.5C 347.5,199.833 347.5,201.167 347.5,202.5C 344.671,205.489 344.004,208.822 345.5,212.5C 345.5,213.5 345.5,214.5 345.5,215.5C 344.778,215.082 344.278,214.416 344,213.5C 342.011,217.746 341.511,222.079 342.5,226.5C 335.984,252.537 323.984,275.537 306.5,295.5C 306.586,294.504 306.252,293.671 305.5,293C 310.074,288.262 314.074,283.095 317.5,277.5C 317.145,276.478 316.478,275.811 315.5,275.5C 325.63,260.934 332.63,245.267 336.5,228.5C 337.014,226.488 337.18,224.488 337,222.5C 334.994,225.536 334.16,228.869 334.5,232.5C 334.167,232.5 333.833,232.5 333.5,232.5C 331.215,235.335 329.882,238.668 329.5,242.5C 329.5,243.5 329.5,244.5 329.5,245.5C 328.662,245.842 328.328,246.508 328.5,247.5C 328.167,247.5 327.833,247.5 327.5,247.5C 324.441,251.937 321.608,256.603 319,261.5C 317.259,264.309 316.092,267.309 315.5,270.5C 315.5,270.833 315.5,271.167 315.5,271.5C 314.662,271.842 314.328,272.508 314.5,273.5C 313.833,273.5 313.5,273.833 313.5,274.5C 312.833,274.5 312.5,274.833 312.5,275.5C 312.5,275.833 312.5,276.167 312.5,276.5C 311.833,276.5 311.5,276.833 311.5,277.5C 310.662,277.842 310.328,278.508 310.5,279.5C 309.833,279.5 309.5,279.833 309.5,280.5C 308.833,280.5 308.5,280.833 308.5,281.5C 296.461,297.206 282.461,310.873 266.5,322.5C 260.5,325.5 254.5,328.5 248.5,331.5C 247.761,331.631 247.094,331.464 246.5,331C 248.996,329.92 251.33,328.586 253.5,327C 252.944,326.617 252.611,326.117 252.5,325.5C 263.62,319.276 273.62,311.609 282.5,302.5C 285.089,301.581 287.089,299.914 288.5,297.5C 290.167,296.5 291.5,295.167 292.5,293.5C 292.5,293.167 292.5,292.833 292.5,292.5C 292.833,292.5 293.167,292.5 293.5,292.5C 295.218,290.777 296.551,288.777 297.5,286.5C 299.085,285.998 299.585,284.998 299,283.5C 298.283,284.044 297.783,284.711 297.5,285.5C 295.5,286.833 293.833,288.5 292.5,290.5C 291.102,292.109 289.435,292.942 287.5,293C 289.439,291.568 290.772,289.735 291.5,287.5C 292.833,286.833 293.833,285.833 294.5,284.5C 301.269,275.946 307.269,266.946 312.5,257.5C 313.906,257.027 314.573,256.027 314.5,254.5C 321.479,240.291 326.479,225.291 329.5,209.5C 330.222,209.082 330.722,208.416 331,207.5C 331.498,204.518 331.665,201.518 331.5,198.5C 333.05,188.366 334.05,178.033 334.5,167.5C 334.046,163.232 333.046,159.232 331.5,155.5C 329.569,141.179 326.235,127.179 321.5,113.5C 321.771,111.62 321.104,110.287 319.5,109.5C 311.804,93.3152 302.304,78.3152 291,64.5C 280.56,54.8817 269.727,45.8817 258.5,37.5C 258.027,36.0937 257.027,35.427 255.5,35.5C 242.402,28.1156 228.735,22.1156 214.5,17.5C 212.162,15.9605 209.495,15.2938 206.5,15.5C 134.221,3.74825 76.7212,27.4149 34,86.5C 29.4715,94.8951 24.9715,103.228 20.5,111.5C 19.7784,111.918 19.2784,112.584 19,113.5C 18.6667,112.5 18.3333,111.5 18,110.5C 16.4101,112.65 15.7434,114.983 16,117.5C 17.1068,116.288 17.6068,116.621 17.5,118.5C 17.5,119.167 17.5,119.833 17.5,120.5C 15.9081,121.602 15.0748,120.935 15,118.5C 12.0827,124.572 10.416,130.905 10,137.5C 10.2784,136.584 10.7784,135.918 11.5,135.5C 10.8857,139.135 10.5524,142.802 10.5,146.5C 9.77842,146.918 9.27842,147.584 9,148.5C 8.83333,147.667 8.66667,146.833 8.5,146C 9.3319,143.522 9.49856,141.022 9,138.5C 7.32418,143.74 6.15752,149.073 5.5,154.5C 4.44203,161.793 3.77536,169.126 3.5,176.5C 3.5,177.167 3.5,177.833 3.5,178.5C 2.51388,174.03 2.18054,169.363 2.5,164.5C 2.75257,156.4 3.75257,148.4 5.5,140.5C 5.83333,139.833 6.16667,139.167 6.5,138.5C 6.51715,136.435 6.85048,134.435 7.5,132.5C 7.5,131.833 7.5,131.167 7.5,130.5C 8.16667,130.5 8.5,130.167 8.5,129.5C 9.23411,128.292 9.56745,126.959 9.5,125.5C 10.905,123.775 11.405,121.775 11,119.5C 10.2208,122.097 9.72083,122.097 9.5,119.5C 9.5,119.167 9.5,118.833 9.5,118.5C 10.404,117.791 10.7373,116.791 10.5,115.5C 12.5924,107.955 15.9257,100.621 20.5,93.5C 21.9063,93.0269 22.573,92.0269 22.5,90.5C 22.5,90.1667 22.5,89.8333 22.5,89.5C 23.9063,89.0269 24.573,88.0269 24.5,86.5C 59.5785,30.1133 110.579,1.4466 177.5,0.5C 186.718,1.27421 195.718,2.60754 204.5,4.5 Z M 216.5,98.5 C 217.833,100.5 219.5,102.167 221.5,103.5C 221.631,104.376 221.298,105.043 220.5,105.5C 213.411,104.784 206.411,104.784 199.5,105.5C 198.631,103.283 198.298,100.95 198.5,98.5C 204.5,98.5 210.5,98.5 216.5,98.5 Z M 97.5,115.5 C 97.8333,115.5 98.1667,115.5 98.5,115.5C 99.4751,117.54 98.8084,117.873 96.5,116.5C 96.6236,115.893 96.9569,115.56 97.5,115.5 Z M 103.5,115.5 C 112.14,115.591 120.806,115.591 129.5,115.5C 131.292,116.309 133.292,116.809 135.5,117C 133.618,117.198 131.952,117.698 130.5,118.5C 128.94,118.481 127.44,118.148 126,117.5C 124.699,117.639 123.866,118.305 123.5,119.5C 123.5,120.167 123.167,120.5 122.5,120.5C 121.485,117.564 119.318,116.231 116,116.5C 113.078,116.548 110.578,117.548 108.5,119.5C 107.415,117.418 105.915,117.084 104,118.5C 103.517,117.552 103.351,116.552 103.5,115.5 Z M 118.5,128.5 C 116.379,128.675 114.379,128.341 112.5,127.5C 110.8,124.233 111.8,122.233 115.5,121.5C 119.357,122.586 120.357,124.92 118.5,128.5 Z M 173.5,128.5 C 172.962,126.883 172.629,125.216 172.5,123.5C 175.696,120.571 178.362,121.071 180.5,125C 179.197,128.044 176.864,129.211 173.5,128.5 Z M 233.5,128.5 C 232.962,126.883 232.629,125.216 232.5,123.5C 234.065,121.281 236.065,120.948 238.5,122.5C 240.561,127.445 238.895,129.445 233.5,128.5 Z M 87.5,160.5 C 87.5,166.5 87.5,172.5 87.5,178.5C 84.5,178.5 81.5,178.5 78.5,178.5C 78.5,175.833 78.5,173.167 78.5,170.5C 79.1993,166.424 80.5326,162.424 82.5,158.5C 85.0549,155.975 86.7216,156.641 87.5,160.5 Z M 336.5,219.5 C 337.492,219.328 338.158,219.662 338.5,220.5C 337.673,221.439 337.006,221.105 336.5,219.5 Z M 336.5,228.5 C 335.833,229.833 335.167,231.167 334.5,232.5C 334.16,228.869 334.994,225.536 337,222.5C 337.18,224.488 337.014,226.488 336.5,228.5 Z M 321.5,261.5 C 322.128,258.91 323.295,256.577 325,254.5C 324.915,257.336 323.749,259.669 321.5,261.5 Z M 297.5,286.5 C 297.5,286.167 297.5,285.833 297.5,285.5C 297.783,284.711 298.283,284.044 299,283.5C 299.585,284.998 299.085,285.998 297.5,286.5 Z"/></g>
<g><path style="opacity:1" fill="#85a9b2" d="M 204.5,4.5 C 207.781,4.42032 210.781,5.08699 213.5,6.5C 212.127,6.34332 210.793,6.50999 209.5,7C 210.167,7.33333 210.833,7.66667 211.5,8C 204.477,7.53169 197.477,6.53169 190.5,5C 195.348,5.05059 200.015,4.88392 204.5,4.5 Z"/></g>
<g><path style="opacity:0.6" fill="#667c81" d="M 206.5,15.5 C 209.495,15.2938 212.162,15.9605 214.5,17.5C 211.572,17.4349 208.905,16.7682 206.5,15.5 Z"/></g>
<g><path style="opacity:0.467" fill="#5c6c70" d="M 255.5,35.5 C 257.027,35.427 258.027,36.0937 258.5,37.5C 256.973,37.573 255.973,36.9063 255.5,35.5 Z"/></g>
<g><path style="opacity:0.467" fill="#7d9da4" d="M 282.5,46.5 C 282.897,45.475 283.563,45.3083 284.5,46C 287.167,48.6667 289.833,51.3333 292.5,54C 291.833,54.6667 291.167,54.6667 290.5,54C 287.964,51.295 285.297,48.795 282.5,46.5 Z"/></g>
<g><path style="opacity:0.259" fill="#4e4b5c" d="M 130.5,71.5 C 130.662,69.4727 130.495,67.4727 130,65.5C 129.768,66.7375 129.268,67.7375 128.5,68.5C 128.5,67.1667 128.5,65.8333 128.5,64.5C 129.5,64.5 130.5,64.5 131.5,64.5C 131.802,67.0593 131.468,69.3926 130.5,71.5 Z"/></g>
<g><path style="opacity:0.259" fill="#49575a" d="M 24.5,86.5 C 24.573,88.0269 23.9063,89.0269 22.5,89.5C 22.427,87.9731 23.0937,86.9731 24.5,86.5 Z"/></g>
<g><path style="opacity:0.376" fill="#586c71" d="M 22.5,90.5 C 22.573,92.0269 21.9063,93.0269 20.5,93.5C 20.427,91.9731 21.0937,90.9731 22.5,90.5 Z"/></g>
<g><path style="opacity:1" fill="#a296d8" d="M 216.5,94.5 C 201.99,94.8293 187.657,94.4959 173.5,93.5C 180.492,92.8337 187.659,92.5003 195,92.5C 202.533,92.5028 209.699,93.1694 216.5,94.5 Z"/></g>
<g><path style="opacity:0.527" fill="#4f4d5e" d="M 173.5,93.5 C 187.657,94.4959 201.99,94.8293 216.5,94.5C 217.167,94.5 217.5,94.8333 217.5,95.5C 202.496,95.3334 187.496,95.5001 172.5,96C 171.627,97.045 170.627,97.8783 169.5,98.5C 170.08,96.2512 171.413,94.5846 173.5,93.5 Z"/></g>
<g><path style="opacity:0.999" fill="#a79adf" d="M 130.5,71.5 C 130.576,82.0785 130.576,92.2452 130.5,102C 131.044,102.717 131.711,103.217 132.5,103.5C 138.026,103.179 143.36,103.512 148.5,104.5C 145.988,105.216 145.988,106.216 148.5,107.5C 149.386,106.675 149.719,105.675 149.5,104.5C 150.209,103.596 151.209,103.263 152.5,103.5C 152.5,104.5 152.5,105.5 152.5,106.5C 149.638,110.376 146.138,113.709 142,116.5C 141.329,115.748 140.496,115.414 139.5,115.5C 137.824,116.183 137.157,117.517 137.5,119.5C 140.5,119.5 143.5,119.5 146.5,119.5C 146.5,120.5 146.5,121.5 146.5,122.5C 150.693,123.032 154.693,123.032 158.5,122.5C 159.484,117.559 160.65,112.559 162,107.5C 164.974,104.878 167.474,101.878 169.5,98.5C 170.627,97.8783 171.627,97.045 172.5,96C 187.496,95.5001 202.496,95.3334 217.5,95.5C 221.291,98.1181 224.957,100.951 228.5,104C 235.326,105.04 241.992,106.706 248.5,109C 253.952,113.962 255.952,120.129 254.5,127.5C 251.5,127.5 248.5,127.5 245.5,127.5C 245.69,118.522 241.357,114.689 232.5,116C 230.34,116.996 228.673,118.496 227.5,120.5C 227.833,121.833 228.167,121.833 228.5,120.5C 234.418,114.934 239.585,115.601 244,122.5C 244.556,124.885 244.39,127.218 243.5,129.5C 240.616,134.389 236.616,135.555 231.5,133C 229.598,131.27 227.931,129.437 226.5,127.5C 212.833,127.5 199.167,127.5 185.5,127.5C 185.66,125.801 185.494,124.134 185,122.5C 184.56,124.866 184.06,127.199 183.5,129.5C 177.355,136.274 171.855,135.607 167,127.5C 165.938,128.097 164.772,128.43 163.5,128.5C 159.537,126.938 155.37,125.938 151,125.5C 148.992,125.307 147.492,125.974 146.5,127.5C 139.5,127.5 132.5,127.5 125.5,127.5C 125.889,124.447 125.223,121.78 123.5,119.5C 123.866,118.305 124.699,117.639 126,117.5C 127.44,118.148 128.94,118.481 130.5,118.5C 132.5,118.5 134.5,118.5 136.5,118.5C 136.5,117.5 136.5,116.5 136.5,115.5C 134.167,115.5 131.833,115.5 129.5,115.5C 120.806,115.591 112.14,115.591 103.5,115.5C 102.566,116.568 102.232,117.901 102.5,119.5C 104.483,119.157 105.817,119.824 106.5,121.5C 106.5,121.833 106.5,122.167 106.5,122.5C 105.28,124.05 105.28,125.716 106.5,127.5C 106.167,127.5 105.833,127.5 105.5,127.5C 101.833,127.5 98.1667,127.5 94.5,127.5C 94.5,123.167 94.5,118.833 94.5,114.5C 95.4345,115.568 95.7678,116.901 95.5,118.5C 97.1667,118.5 98.8333,118.5 100.5,118.5C 100.715,116.821 100.048,115.821 98.5,115.5C 98.1667,115.5 97.8333,115.5 97.5,115.5C 96.4884,114.128 95.4884,112.795 94.5,111.5C 93.0762,109.485 92.4095,107.152 92.5,104.5C 97.8333,104.5 103.167,104.5 108.5,104.5C 115.913,105.128 122.913,104.461 129.5,102.5C 128.536,100.595 126.869,99.5953 124.5,99.5C 119.683,100.964 115.016,100.797 110.5,99C 116.4,88.6878 122.4,78.5211 128.5,68.5C 129.268,67.7375 129.768,66.7375 130,65.5C 130.495,67.4727 130.662,69.4727 130.5,71.5 Z M 216.5,98.5 C 217.833,100.5 219.5,102.167 221.5,103.5C 221.631,104.376 221.298,105.043 220.5,105.5C 213.411,104.784 206.411,104.784 199.5,105.5C 198.631,103.283 198.298,100.95 198.5,98.5C 204.5,98.5 210.5,98.5 216.5,98.5 Z M 97.5,115.5 C 97.8333,115.5 98.1667,115.5 98.5,115.5C 99.4751,117.54 98.8084,117.873 96.5,116.5C 96.6236,115.893 96.9569,115.56 97.5,115.5 Z M 103.5,115.5 C 112.14,115.591 120.806,115.591 129.5,115.5C 131.292,116.309 133.292,116.809 135.5,117C 133.618,117.198 131.952,117.698 130.5,118.5C 128.94,118.481 127.44,118.148 126,117.5C 124.699,117.639 123.866,118.305 123.5,119.5C 123.5,120.167 123.167,120.5 122.5,120.5C 121.485,117.564 119.318,116.231 116,116.5C 113.078,116.548 110.578,117.548 108.5,119.5C 107.415,117.418 105.915,117.084 104,118.5C 103.517,117.552 103.351,116.552 103.5,115.5 Z M 173.5,128.5 C 172.962,126.883 172.629,125.216 172.5,123.5C 175.696,120.571 178.362,121.071 180.5,125C 179.197,128.044 176.864,129.211 173.5,128.5 Z M 233.5,128.5 C 232.962,126.883 232.629,125.216 232.5,123.5C 234.065,121.281 236.065,120.948 238.5,122.5C 240.561,127.445 238.895,129.445 233.5,128.5 Z"/></g>
<g><path style="opacity:0.567" fill="#7a98a0" d="M 319.5,91.5 C 323.362,96.2224 325.862,101.556 327,107.5C 324.215,102.265 321.715,96.9321 319.5,91.5 Z"/></g>
<g><path style="opacity:0.37" fill="#5e5a74" d="M 216.5,98.5 C 210.5,98.5 204.5,98.5 198.5,98.5C 198.298,100.95 198.631,103.283 199.5,105.5C 198.833,105.5 198.167,105.5 197.5,105.5C 197.5,102.833 197.5,100.167 197.5,97.5C 204.022,97.1765 210.355,97.5098 216.5,98.5 Z"/></g>
<g><path style="opacity:0.875" fill="#756e96" d="M 132.5,103.5 C 139.677,102.181 147.01,102.181 154.5,103.5C 154.058,104.739 153.391,105.739 152.5,106.5C 152.5,105.5 152.5,104.5 152.5,103.5C 151.209,103.263 150.209,103.596 149.5,104.5C 149.167,104.5 148.833,104.5 148.5,104.5C 143.36,103.512 138.026,103.179 132.5,103.5 Z"/></g>
<g><path style="opacity:0.939" fill="#746c94" d="M 129.5,102.5 C 122.913,104.461 115.913,105.128 108.5,104.5C 115.368,103.765 122.368,103.098 129.5,102.5 Z"/></g>
<g><path style="opacity:0.044" fill="#3f3d46" d="M 148.5,104.5 C 148.833,104.5 149.167,104.5 149.5,104.5C 149.719,105.675 149.386,106.675 148.5,107.5C 145.988,106.216 145.988,105.216 148.5,104.5 Z"/></g>
<g><path style="opacity:0.825" fill="#6f698c" d="M 221.5,103.5 C 222.478,103.811 223.145,104.478 223.5,105.5C 214.675,106.821 206.009,106.821 197.5,105.5C 198.167,105.5 198.833,105.5 199.5,105.5C 206.411,104.784 213.411,104.784 220.5,105.5C 221.298,105.043 221.631,104.376 221.5,103.5 Z"/></g>
<g><path style="opacity:0.11" fill="#4d5658" d="M 319.5,109.5 C 321.104,110.287 321.771,111.62 321.5,113.5C 320.326,112.486 319.66,111.153 319.5,109.5 Z"/></g>
<g><path style="opacity:1" fill="#6f8c93" d="M 20.5,111.5 C 20.4484,114.346 19.4484,116.68 17.5,118.5C 17.6068,116.621 17.1068,116.288 16,117.5C 15.7434,114.983 16.4101,112.65 18,110.5C 18.3333,111.5 18.6667,112.5 19,113.5C 19.2784,112.584 19.7784,111.918 20.5,111.5 Z"/></g>
<g><path style="opacity:0.736" fill="#686384" d="M 93.5,114.5 C 93.8333,114.5 94.1667,114.5 94.5,114.5C 94.5,118.833 94.5,123.167 94.5,127.5C 98.1667,127.5 101.833,127.5 105.5,127.5C 101.434,128.822 97.2669,128.822 93,127.5C 93.2907,123.226 93.4573,118.893 93.5,114.5 Z"/></g>
<g><path style="opacity:0.051" fill="#343337" d="M 94.5,111.5 C 95.4884,112.795 96.4884,114.128 97.5,115.5C 96.9569,115.56 96.6236,115.893 96.5,116.5C 98.8084,117.873 99.4751,117.54 98.5,115.5C 100.048,115.821 100.715,116.821 100.5,118.5C 98.8333,118.5 97.1667,118.5 95.5,118.5C 95.7678,116.901 95.4345,115.568 94.5,114.5C 94.1667,114.5 93.8333,114.5 93.5,114.5C 94.1098,113.609 94.4431,112.609 94.5,111.5 Z M 97.5,115.5 C 97.8333,115.5 98.1667,115.5 98.5,115.5C 99.4751,117.54 98.8084,117.873 96.5,116.5C 96.6236,115.893 96.9569,115.56 97.5,115.5 Z"/></g>
<g><path style="opacity:0.616" fill="#586b6f" d="M 10.5,115.5 C 10.7373,116.791 10.404,117.791 9.5,118.5C 9.06178,118.565 8.72845,118.399 8.5,118C 9.06594,117.005 9.73261,116.172 10.5,115.5 Z"/></g>
<g><path style="opacity:0.997" fill="#998ecb" d="M 122.5,120.5 C 124.445,123.363 124.779,126.363 123.5,129.5C 120.183,134.214 115.849,135.381 110.5,133C 108.859,131.871 107.859,130.371 107.5,128.5C 107.5,126.833 107.5,125.167 107.5,123.5C 107.5,122.833 107.5,122.167 107.5,121.5C 108.167,121.5 108.5,121.167 108.5,120.5C 108.5,120.167 108.5,119.833 108.5,119.5C 110.578,117.548 113.078,116.548 116,116.5C 119.318,116.231 121.485,117.564 122.5,120.5 Z M 118.5,128.5 C 116.379,128.675 114.379,128.341 112.5,127.5C 110.8,124.233 111.8,122.233 115.5,121.5C 119.357,122.586 120.357,124.92 118.5,128.5 Z"/></g>
<g><path style="opacity:0.024" fill="#37363a" d="M 129.5,115.5 C 131.833,115.5 134.167,115.5 136.5,115.5C 136.5,116.5 136.5,117.5 136.5,118.5C 134.5,118.5 132.5,118.5 130.5,118.5C 131.952,117.698 133.618,117.198 135.5,117C 133.292,116.809 131.292,116.309 129.5,115.5 Z"/></g>
<g><path style="opacity:0.227" fill="#545064" d="M 174.5,115.5 C 174.5,115.833 174.5,116.167 174.5,116.5C 172.668,117.248 171.001,118.248 169.5,119.5C 170.129,117.003 171.796,115.67 174.5,115.5 Z"/></g>
<g><path style="opacity:0.247" fill="#4d4a59" d="M 254.5,127.5 C 250.939,128.23 247.273,128.897 243.5,129.5C 244.39,127.218 244.556,124.885 244,122.5C 239.585,115.601 234.418,114.934 228.5,120.5C 228.167,120.5 227.833,120.5 227.5,120.5C 228.673,118.496 230.34,116.996 232.5,116C 241.357,114.689 245.69,118.522 245.5,127.5C 248.5,127.5 251.5,127.5 254.5,127.5 Z"/></g>
<g><path style="opacity:0.889" fill="#686182" d="M 103.5,115.5 C 103.351,116.552 103.517,117.552 104,118.5C 105.915,117.084 107.415,117.418 108.5,119.5C 107.167,119.833 107.167,120.167 108.5,120.5C 108.5,121.167 108.167,121.5 107.5,121.5C 107.167,121.5 106.833,121.5 106.5,121.5C 105.817,119.824 104.483,119.157 102.5,119.5C 102.232,117.901 102.566,116.568 103.5,115.5 Z"/></g>
<g><path style="opacity:0.953" fill="#7c74a0" d="M 139.5,115.5 C 138.402,116.397 138.402,117.23 139.5,118C 141.235,118.651 142.902,118.485 144.5,117.5C 145.522,117.855 146.189,118.522 146.5,119.5C 143.5,119.5 140.5,119.5 137.5,119.5C 137.157,117.517 137.824,116.183 139.5,115.5 Z"/></g>
<g><path style="opacity:0.098" fill="#4d4a5a" d="M 176.5,116.5 C 176.5,116.167 176.5,115.833 176.5,115.5C 180.763,115.618 183.263,117.618 184,121.5C 182.14,118.796 179.64,117.129 176.5,116.5 Z"/></g>
<g><path style="opacity:0.965" fill="#7da0a8" d="M 9.5,119.5 C 9.72083,122.097 10.2208,122.097 11,119.5C 11.405,121.775 10.905,123.775 9.5,125.5C 8.68509,126.429 7.85175,127.429 7,128.5C 6.60123,128.272 6.43456,127.938 6.5,127.5C 6.90277,124.514 7.90277,121.848 9.5,119.5 Z"/></g>
<g><path style="opacity:0.501" fill="#58536a" d="M 146.5,119.5 C 150.152,121.415 154.152,122.415 158.5,122.5C 154.693,123.032 150.693,123.032 146.5,122.5C 146.5,121.5 146.5,120.5 146.5,119.5 Z"/></g>
<g><path style="opacity:0.363" fill="#534f65" d="M 106.5,122.5 C 106.5,123.167 106.833,123.5 107.5,123.5C 107.5,125.167 107.5,126.833 107.5,128.5C 106.833,128.5 106.5,128.167 106.5,127.5C 105.28,125.716 105.28,124.05 106.5,122.5 Z"/></g>
<g><path style="opacity:0.043" fill="#43414b" d="M 172.5,123.5 C 172.629,125.216 172.962,126.883 173.5,128.5C 171.403,127.121 171.07,125.455 172.5,123.5 Z"/></g>
<g><path style="opacity:0.035" fill="#46444e" d="M 232.5,123.5 C 232.629,125.216 232.962,126.883 233.5,128.5C 231.403,127.121 231.07,125.455 232.5,123.5 Z"/></g>
<g><path style="opacity:0.992" fill="#a0d1de" d="M 13.5,132.5 C 13.5,132.833 13.5,133.167 13.5,133.5C 12.8333,134.167 12.1667,134.833 11.5,135.5C 11.8572,131.737 12.6905,128.07 14,124.5C 14.4298,127.192 14.2631,129.859 13.5,132.5 Z"/></g>
<g><path style="opacity:0.412" fill="#56686d" d="M 17.5,120.5 C 16.5341,124.723 15.2008,128.723 13.5,132.5C 14.2631,129.859 14.4298,127.192 14,124.5C 12.6905,128.07 11.8572,131.737 11.5,135.5C 10.7784,135.918 10.2784,136.584 10,137.5C 10.416,130.905 12.0827,124.572 15,118.5C 15.0748,120.935 15.9081,121.602 17.5,120.5 Z"/></g>
<g><path style="opacity:0.112" fill="#43414e" d="M 123.5,119.5 C 125.223,121.78 125.889,124.447 125.5,127.5C 132.5,127.5 139.5,127.5 146.5,127.5C 138.933,128.196 131.266,128.863 123.5,129.5C 124.779,126.363 124.445,123.363 122.5,120.5C 123.167,120.5 123.5,120.167 123.5,119.5 Z"/></g>
<g><path style="opacity:0.103" fill="#413f48" d="M 226.5,127.5 C 212.265,128.182 197.932,128.849 183.5,129.5C 184.06,127.199 184.56,124.866 185,122.5C 185.494,124.134 185.66,125.801 185.5,127.5C 199.167,127.5 212.833,127.5 226.5,127.5 Z"/></g>
<g><path style="opacity:0.016" fill="#403e49" d="M 112.5,127.5 C 114.379,128.341 116.379,128.675 118.5,128.5C 117.726,129.147 116.726,129.48 115.5,129.5C 113.97,129.36 112.97,128.693 112.5,127.5 Z"/></g>
<g><path style="opacity:0.227" fill="#434e51" d="M 9.5,125.5 C 9.56745,126.959 9.23411,128.292 8.5,129.5C 7.83333,129.5 7.5,129.833 7.5,130.5C 7.5,131.167 7.5,131.833 7.5,132.5C 6.30652,132.97 5.63985,133.97 5.5,135.5C 5.51954,136.726 5.85287,137.726 6.5,138.5C 6.16667,139.167 5.83333,139.833 5.5,140.5C 4.02211,141.448 3.02211,142.781 2.5,144.5C 2.42265,143.25 1.75598,142.417 0.5,142C 1.66667,141.5 2.5,140.667 3,139.5C 3.33333,136.833 3.66667,134.167 4,131.5C 4.20041,129.68 5.03374,128.347 6.5,127.5C 6.43456,127.938 6.60123,128.272 7,128.5C 7.85175,127.429 8.68509,126.429 9.5,125.5 Z"/></g>
<g><path style="opacity:0.004" fill="#252625" d="M 0.5,137.5 C 1.52502,137.897 1.69169,138.563 1,139.5C 0.535656,138.906 0.368989,138.239 0.5,137.5 Z"/></g>
<g><path style="opacity:0.027" fill="#383f41" d="M 13.5,133.5 C 12.6604,137.985 11.6604,142.319 10.5,146.5C 10.5524,142.802 10.8857,139.135 11.5,135.5C 12.1667,134.833 12.8333,134.167 13.5,133.5 Z"/></g>
<g><path style="opacity:0.968" fill="#6078f5" d="M 284.5,291.5 C 284.5,294.167 284.5,296.833 284.5,299.5C 283.833,300.5 283.167,301.5 282.5,302.5C 280.167,302.5 277.833,302.5 275.5,302.5C 274.833,302.5 274.167,302.5 273.5,302.5C 203.833,302.667 134.166,302.5 64.5,302C 64,301.5 63.5,301 63,300.5C 62.3333,248.833 62.3333,197.167 63,145.5C 63.5,145 64,144.5 64.5,144C 136.737,143.832 208.904,143.332 281,142.5C 282,143.5 283,144.5 284,145.5C 284.176,193.189 284.676,240.856 285.5,288.5C 285.315,289.584 284.982,290.584 284.5,291.5 Z M 67.5,145.5 C 138.167,145.5 208.833,145.5 279.5,145.5C 280.692,147.113 281.692,148.78 282.5,150.5C 282.217,198.83 282.217,247.164 282.5,295.5C 280.089,296.517 278.422,298.184 277.5,300.5C 207.166,300.667 136.833,300.5 66.5,300C 66,299.5 65.5,299 65,298.5C 64.5,248.501 64.3333,198.501 64.5,148.5C 65.8333,147.833 66.8333,146.833 67.5,145.5 Z M 87.5,160.5 C 87.5,166.5 87.5,172.5 87.5,178.5C 84.5,178.5 81.5,178.5 78.5,178.5C 78.5,175.833 78.5,173.167 78.5,170.5C 79.1993,166.424 80.5326,162.424 82.5,158.5C 85.0549,155.975 86.7216,156.641 87.5,160.5 Z M 170.5,157.5 C 171.06,162.305 171.727,166.971 172.5,171.5C 172.808,173.924 172.474,176.257 171.5,178.5C 170.583,179.127 169.583,179.461 168.5,179.5C 166.735,178.539 164.735,178.205 162.5,178.5C 162.5,176.167 162.5,173.833 162.5,171.5C 162.982,165.86 165.148,160.86 169,156.5C 169.383,157.056 169.883,157.389 170.5,157.5 Z M 267.5,157.5 C 267.813,162.353 268.479,167.02 269.5,171.5C 268.454,173.785 268.454,176.118 269.5,178.5C 266.721,178.279 264.054,178.612 261.5,179.5C 259.798,177.2 259.132,174.533 259.5,171.5C 260.687,167.075 262.187,162.742 264,158.5C 265.011,157.663 266.178,157.33 267.5,157.5 Z M 263.5,232.5 C 263.496,240.205 263.496,247.872 263.5,255.5C 263.085,259.83 262.085,263.997 260.5,268C 260.451,272.84 259.118,277.507 256.5,282C 254.807,282.847 253.14,283.68 251.5,284.5C 248.833,285.833 246.167,285.833 243.5,284.5C 238.598,279.626 236.098,273.626 236,266.5C 235.333,255.5 235.333,244.5 236,233.5C 236.286,224.411 240.453,217.911 248.5,214C 253.814,212.74 257.647,214.574 260,219.5C 261.015,223.895 262.182,228.229 263.5,232.5 Z"/></g>
<g><path style="opacity:0.251" fill="#5a7074" d="M 2.5,144.5 C 1.83333,145.167 1.83333,145.167 2.5,144.5 Z"/></g>
<g><path style="opacity:0.373" fill="#3f425a" d="M 279.5,145.5 C 282.084,146.048 283.084,147.715 282.5,150.5C 281.692,148.78 280.692,147.113 279.5,145.5 Z"/></g>
<g><path style="opacity:0.227" fill="#445054" d="M 1.5,149.5 C 1.35055,148.448 1.51722,147.448 2,146.5C 2.74012,147.749 2.57346,148.749 1.5,149.5 Z"/></g>
<g><path style="opacity:0.437" fill="#4e5d61" d="M 10.5,146.5 C 10.6747,148.621 10.3414,150.621 9.5,152.5C 9.16667,152.5 8.83333,152.5 8.5,152.5C 8.64945,151.448 8.48278,150.448 8,149.5C 7.80912,151.708 7.30912,153.708 6.5,155.5C 6.5,154.833 6.16667,154.5 5.5,154.5C 6.15752,149.073 7.32418,143.74 9,138.5C 9.49856,141.022 9.3319,143.522 8.5,146C 8.66667,146.833 8.83333,147.667 9,148.5C 9.27842,147.584 9.77842,146.918 10.5,146.5 Z"/></g>
<g><path style="opacity:0.016" fill="#323546" d="M 67.5,145.5 C 66.8333,146.833 65.8333,147.833 64.5,148.5C 64.5,146.5 65.5,145.5 67.5,145.5 Z"/></g>
<g><path style="opacity:0.106" fill="#3a4244" d="M 1.5,149.5 C 1.66212,151.527 1.49546,153.527 1,155.5C 0.210861,153.288 0.377527,151.288 1.5,149.5 Z"/></g>
<g><path style="opacity:0.04" fill="#2a2c2c" d="M 8.5,152.5 C 8.83333,152.5 9.16667,152.5 9.5,152.5C 9.63818,157.414 8.97151,162.081 7.5,166.5C 7.5,165.5 7.5,164.5 7.5,163.5C 7.94225,159.846 8.27558,156.179 8.5,152.5 Z"/></g>
<g><path style="opacity:0.995" fill="#9fd0dc" d="M 87.5,183.5 C 84.3752,182.521 81.0419,182.187 77.5,182.5C 77.2053,184.735 77.5386,186.735 78.5,188.5C 78.5,188.833 78.5,189.167 78.5,189.5C 78.5,190.833 78.5,192.167 78.5,193.5C 76.8333,193.5 75.1667,193.5 73.5,193.5C 70.8846,182.744 71.3846,172.077 75,161.5C 79.7447,152.349 85.7447,151.349 93,158.5C 93.8184,161.107 94.3184,163.774 94.5,166.5C 93.7784,175.818 93.2784,185.152 93,194.5C 91.5993,196.192 89.7659,196.859 87.5,196.5C 87.5,192.167 87.5,187.833 87.5,183.5 Z M 87.5,160.5 C 87.5,166.5 87.5,172.5 87.5,178.5C 84.5,178.5 81.5,178.5 78.5,178.5C 78.5,175.833 78.5,173.167 78.5,170.5C 79.1993,166.424 80.5326,162.424 82.5,158.5C 85.0549,155.975 86.7216,156.641 87.5,160.5 Z"/></g>
<g><path style="opacity:0.999" fill="#a3d6e2" d="M 121.5,160.5 C 120.081,159.549 118.415,159.216 116.5,159.5C 116.5,170.833 116.5,182.167 116.5,193.5C 115.817,195.176 114.483,195.843 112.5,195.5C 111.631,193.283 111.298,190.95 111.5,188.5C 110.167,186.5 110.167,184.5 111.5,182.5C 112.493,174.35 112.826,166.017 112.5,157.5C 108.958,157.187 105.625,157.521 102.5,158.5C 102.167,159.5 101.5,160.167 100.5,160.5C 98.8212,160.715 97.8212,160.048 97.5,158.5C 99.5025,155.228 102.503,153.561 106.5,153.5C 112.814,154.331 118.981,155.665 125,157.5C 126.87,155.781 129.037,154.781 131.5,154.5C 131.556,159.111 129.223,161.444 124.5,161.5C 123.274,161.48 122.274,161.147 121.5,160.5 Z"/></g>
<g><path style="opacity:0.999" fill="#a4d7e4" d="M 152.5,194.5 C 147.167,194.5 141.833,194.5 136.5,194.5C 136.5,181.167 136.5,167.833 136.5,154.5C 137.884,153.199 139.384,153.199 141,154.5C 141.5,166.495 141.667,178.495 141.5,190.5C 145.182,190.335 148.848,190.501 152.5,191C 155.07,192.349 155.07,193.516 152.5,194.5 Z"/></g>
<g><path style="opacity:0.999" fill="#9fcfdb" d="M 176.5,195.5 C 175.167,195.5 173.833,195.5 172.5,195.5C 172.817,191.298 172.483,187.298 171.5,183.5C 168.375,182.521 165.042,182.187 161.5,182.5C 161.205,184.735 161.539,186.735 162.5,188.5C 164.593,193.416 162.926,195.416 157.5,194.5C 157.5,193.5 157.5,192.5 157.5,191.5C 157.806,188.615 157.473,185.948 156.5,183.5C 155.441,173.697 157.441,164.53 162.5,156C 171.855,151.334 177.021,154.168 178,164.5C 178.406,172.828 178.573,180.995 178.5,189C 178.01,191.346 177.343,193.513 176.5,195.5 Z M 170.5,157.5 C 171.06,162.305 171.727,166.971 172.5,171.5C 172.808,173.924 172.474,176.257 171.5,178.5C 170.583,179.127 169.583,179.461 168.5,179.5C 166.735,178.539 164.735,178.205 162.5,178.5C 162.5,176.167 162.5,173.833 162.5,171.5C 162.982,165.86 165.148,160.86 169,156.5C 169.383,157.056 169.883,157.389 170.5,157.5 Z"/></g>
<g><path style="opacity:0.999" fill="#a0d1dd" d="M 204.5,180.5 C 204.281,181.675 204.614,182.675 205.5,183.5C 206.498,174.859 206.831,166.192 206.5,157.5C 206.859,153.074 208.693,152.407 212,155.5C 211.998,168.393 211.498,181.226 210.5,194C 207.692,194.92 205.525,194.087 204,191.5C 199.475,183.113 194.975,174.779 190.5,166.5C 190.217,165.711 189.717,165.044 189,164.5C 188.5,174.161 188.334,183.828 188.5,193.5C 187.116,194.801 185.616,194.801 184,193.5C 183.178,180.258 183.345,167.091 184.5,154C 186.112,153.28 187.612,153.446 189,154.5C 193.954,163.428 199.121,172.094 204.5,180.5 Z"/></g>
<g><path style="opacity:0.995" fill="#9fcfdb" d="M 237.5,160.5 C 237.44,159.957 237.107,159.624 236.5,159.5C 235.511,163.107 235.177,166.774 235.5,170.5C 235.666,178.507 235.5,186.507 235,194.5C 233.057,195.807 231.223,195.807 229.5,194.5C 230.457,183.217 230.79,171.884 230.5,160.5C 230.389,159.883 230.056,159.383 229.5,159C 228,158.833 226.5,158.667 225,158.5C 221.546,158.879 218.379,159.879 215.5,161.5C 216.23,156.187 219.397,153.52 225,153.5C 230.507,154.453 236.007,155.453 241.5,156.5C 244.307,156.098 246.973,155.598 249.5,155C 250.041,157.865 248.707,159.865 245.5,161C 242.779,161.602 240.113,161.435 237.5,160.5 Z"/></g>
<g><path style="opacity:0.997" fill="#9ccad6" d="M 273.5,195.5 C 272.167,195.5 270.833,195.5 269.5,195.5C 269.5,192.167 269.5,188.833 269.5,185.5C 269.167,184.833 268.833,184.167 268.5,183.5C 265.375,182.521 262.042,182.187 258.5,182.5C 258.205,184.735 258.539,186.735 259.5,188.5C 261.514,193.819 259.847,195.486 254.5,193.5C 253.894,191.291 253.227,189.124 252.5,187C 252.61,183.533 252.944,180.033 253.5,176.5C 254.482,172.684 255.149,168.684 255.5,164.5C 256.699,156.399 261.366,152.899 269.5,154C 273.247,155.987 275.081,159.154 275,163.5C 275.167,167.333 275.333,171.167 275.5,175C 275.066,179.991 275.066,184.824 275.5,189.5C 275.122,191.717 274.455,193.717 273.5,195.5 Z M 267.5,157.5 C 267.813,162.353 268.479,167.02 269.5,171.5C 268.454,173.785 268.454,176.118 269.5,178.5C 266.721,178.279 264.054,178.612 261.5,179.5C 259.798,177.2 259.132,174.533 259.5,171.5C 260.687,167.075 262.187,162.742 264,158.5C 265.011,157.663 266.178,157.33 267.5,157.5 Z"/></g>
<g><path style="opacity:0.688" fill="#90bcc7" d="M 8.5,152.5 C 8.27558,156.179 7.94225,159.846 7.5,163.5C 7.16667,163.5 6.83333,163.5 6.5,163.5C 6.5,160.833 6.5,158.167 6.5,155.5C 7.30912,153.708 7.80912,151.708 8,149.5C 8.48278,150.448 8.64945,151.448 8.5,152.5 Z"/></g>
<g><path style="opacity:0.2" fill="#48575a" d="M -0.5,156.5 C 0.833333,157.167 0.833333,157.167 -0.5,156.5 Z"/></g>
<g><path style="opacity:0.248" fill="#56686c" d="M 102.5,158.5 C 105.625,157.521 108.958,157.187 112.5,157.5C 112.826,166.017 112.493,174.35 111.5,182.5C 111.5,174.5 111.5,166.5 111.5,158.5C 108.5,158.5 105.5,158.5 102.5,158.5 Z"/></g>
<g><path style="opacity:0.737" fill="#5c7075" d="M 97.5,158.5 C 97.8212,160.048 98.8212,160.715 100.5,160.5C 99.4324,161.434 98.099,161.768 96.5,161.5C 96.2627,160.209 96.596,159.209 97.5,158.5 Z"/></g>
<g><path style="opacity:0.119" fill="#444c4e" d="M 237.5,160.5 C 236.833,163.833 236.167,167.167 235.5,170.5C 235.177,166.774 235.511,163.107 236.5,159.5C 237.107,159.624 237.44,159.957 237.5,160.5 Z"/></g>
<g><path style="opacity:0.292" fill="#6b8389" d="M 344.5,168.5 C 343.167,170.167 343.167,171.833 344.5,173.5C 344.786,179.259 344.452,184.925 343.5,190.5C 343.167,190.5 342.833,190.5 342.5,190.5C 342.167,190.5 341.833,190.5 341.5,190.5C 342.317,178.987 342.65,167.487 342.5,156C 341.43,151.188 340.93,146.355 341,141.5C 343.218,150.333 344.384,159.333 344.5,168.5 Z"/></g>
<g><path style="opacity:0.012" fill="#2c2f30" d="M -0.5,158.5 C 2.0341,160.75 2.0341,163.084 -0.5,165.5C -0.5,163.167 -0.5,160.833 -0.5,158.5 Z"/></g>
<g><path style="opacity:0.15" fill="#454c4e" d="M 267.5,157.5 C 268.268,158.263 268.768,159.263 269,160.5C 269.499,164.152 269.665,167.818 269.5,171.5C 268.479,167.02 267.813,162.353 267.5,157.5 Z"/></g>
<g><path style="opacity:0.129" fill="#4c585b" d="M 170.5,157.5 C 171.117,157.611 171.617,157.944 172,158.5C 172.499,162.821 172.666,167.154 172.5,171.5C 171.727,166.971 171.06,162.305 170.5,157.5 Z"/></g>
<g><path style="opacity:0.051" fill="#363d3e" d="M 5.5,154.5 C 6.16667,154.5 6.5,154.833 6.5,155.5C 6.5,158.167 6.5,160.833 6.5,163.5C 5.52056,166.625 5.18723,169.958 5.5,173.5C 4.83333,174.5 4.16667,175.5 3.5,176.5C 3.77536,169.126 4.44203,161.793 5.5,154.5 Z"/></g>
<g><path style="opacity:0.711" fill="#637c82" d="M 6.5,163.5 C 6.83333,163.5 7.16667,163.5 7.5,163.5C 7.5,164.5 7.5,165.5 7.5,166.5C 7.60725,172.88 7.10725,179.213 6,185.5C 5.50115,181.514 5.33449,177.514 5.5,173.5C 5.18723,169.958 5.52056,166.625 6.5,163.5 Z"/></g>
<g><path style="opacity:0.64" fill="#657c82" d="M 121.5,160.5 C 118.112,159.835 117.112,160.835 118.5,163.5C 117.88,173.648 117.213,183.648 116.5,193.5C 116.5,182.167 116.5,170.833 116.5,159.5C 118.415,159.216 120.081,159.549 121.5,160.5 Z"/></g>
<g><path style="opacity:0.624" fill="#62777c" d="M 255.5,164.5 C 255.149,168.684 254.482,172.684 253.5,176.5C 253.083,172.183 253.75,168.183 255.5,164.5 Z"/></g>
<g><path style="opacity:0.361" fill="#49585b" d="M 2.5,164.5 C 2.18054,169.363 2.51388,174.03 3.5,178.5C 3.65668,179.873 3.49001,181.207 3,182.5C -0.0083595,176.494 -0.175026,170.494 2.5,164.5 Z"/></g>
<g><path style="opacity:0.023" fill="#393e40" d="M 87.5,160.5 C 88.4902,166.645 88.8235,172.978 88.5,179.5C 84.8333,179.5 81.1667,179.5 77.5,179.5C 77.19,176.287 77.5233,173.287 78.5,170.5C 78.5,173.167 78.5,175.833 78.5,178.5C 81.5,178.5 84.5,178.5 87.5,178.5C 87.5,172.5 87.5,166.5 87.5,160.5 Z"/></g>
<g><path style="opacity:0.383" fill="#5a6c70" d="M 162.5,171.5 C 162.5,173.833 162.5,176.167 162.5,178.5C 164.735,178.205 166.735,178.539 168.5,179.5C 166.167,179.5 163.833,179.5 161.5,179.5C 161.194,176.615 161.527,173.948 162.5,171.5 Z"/></g>
<g><path style="opacity:0.502" fill="#6b848a" d="M 259.5,171.5 C 259.132,174.533 259.798,177.2 261.5,179.5C 260.5,179.5 259.5,179.5 258.5,179.5C 258.194,176.615 258.527,173.948 259.5,171.5 Z"/></g>
<g><path style="opacity:0.478" fill="#5f7377" d="M 206.5,157.5 C 206.831,166.192 206.498,174.859 205.5,183.5C 204.614,182.675 204.281,181.675 204.5,180.5C 205.167,172.833 205.833,165.167 206.5,157.5 Z"/></g>
<g><path style="opacity:0.244" fill="#516064" d="M 190.5,166.5 C 189.833,175.5 189.167,184.5 188.5,193.5C 188.334,183.828 188.5,174.161 189,164.5C 189.717,165.044 190.217,165.711 190.5,166.5 Z"/></g>
<g><path style="opacity:0.369" fill="#526367" d="M 87.5,183.5 C 84.5,183.5 81.5,183.5 78.5,183.5C 78.5,185.167 78.5,186.833 78.5,188.5C 77.5386,186.735 77.2053,184.735 77.5,182.5C 81.0419,182.187 84.3752,182.521 87.5,183.5 Z"/></g>
<g><path style="opacity:0.233" fill="#586a6f" d="M 171.5,183.5 C 168.5,183.5 165.5,183.5 162.5,183.5C 162.5,185.167 162.5,186.833 162.5,188.5C 161.539,186.735 161.205,184.735 161.5,182.5C 165.042,182.187 168.375,182.521 171.5,183.5 Z"/></g>
<g><path style="opacity:0.226" fill="#5d6f74" d="M 268.5,183.5 C 265.5,183.5 262.5,183.5 259.5,183.5C 259.5,185.167 259.5,186.833 259.5,188.5C 258.539,186.735 258.205,184.735 258.5,182.5C 262.042,182.187 265.375,182.521 268.5,183.5 Z"/></g>
<g><path style="opacity:0.516" fill="#6a8287" d="M 331.5,155.5 C 333.046,159.232 334.046,163.232 334.5,167.5C 334.05,178.033 333.05,188.366 331.5,198.5C 332.397,184.34 332.397,170.007 331.5,155.5 Z"/></g>
<g><path style="opacity:0.754" fill="#6d878d" d="M 156.5,183.5 C 157.473,185.948 157.806,188.615 157.5,191.5C 156.11,188.906 155.777,186.239 156.5,183.5 Z"/></g>
<g><path style="opacity:0.751" fill="#59696d" d="M 230.5,160.5 C 230.79,171.884 230.457,183.217 229.5,194.5C 228.903,194.265 228.57,193.765 228.5,193C 229.135,182.026 229.802,171.192 230.5,160.5 Z"/></g>
<g><path style="opacity:0.258" fill="#475255" d="M 111.5,188.5 C 111.298,190.95 111.631,193.283 112.5,195.5C 111.275,194.848 110.608,193.681 110.5,192C 110.514,190.615 110.848,189.449 111.5,188.5 Z"/></g>
<g><path style="opacity:0.553" fill="#546265" d="M 348.5,169.5 C 349.312,178.919 349.645,188.419 349.5,198C 348.906,198.464 348.239,198.631 347.5,198.5C 348.148,188.847 348.482,179.18 348.5,169.5 Z"/></g>
<g><path style="opacity:0.675" fill="#5c7075" d="M 78.5,189.5 C 79.4511,190.919 79.7845,192.585 79.5,194.5C 77.2646,194.795 75.2646,194.461 73.5,193.5C 75.1667,193.5 76.8333,193.5 78.5,193.5C 78.5,192.167 78.5,190.833 78.5,189.5 Z"/></g>
<g><path style="opacity:0.778" fill="#6e898f" d="M 171.5,183.5 C 172.483,187.298 172.817,191.298 172.5,195.5C 173.833,195.5 175.167,195.5 176.5,195.5C 175.081,196.451 173.415,196.784 171.5,196.5C 171.5,192.167 171.5,187.833 171.5,183.5 Z"/></g>
<g><path style="opacity:0.753" fill="#6a8288" d="M 269.5,185.5 C 269.5,188.833 269.5,192.167 269.5,195.5C 270.833,195.5 272.167,195.5 273.5,195.5C 270.92,197.008 268.92,196.341 267.5,193.5C 268.08,190.689 268.746,188.023 269.5,185.5 Z"/></g>
<g><path style="opacity:0.624" fill="#61777c" d="M 136.5,154.5 C 136.5,167.833 136.5,181.167 136.5,194.5C 141.833,194.5 147.167,194.5 152.5,194.5C 147.025,195.489 141.358,195.822 135.5,195.5C 135.171,181.656 135.504,167.99 136.5,154.5 Z"/></g>
<g><path style="opacity:0.222" fill="#525f62" d="M 341.5,190.5 C 341.833,190.5 342.167,190.5 342.5,190.5C 342.5,191.167 342.833,191.5 343.5,191.5C 343.562,196.58 342.562,201.413 340.5,206C 340.57,206.765 340.903,207.265 341.5,207.5C 340.583,210.417 339.916,213.417 339.5,216.5C 338.167,217.167 338.167,217.833 339.5,218.5C 339.672,219.492 339.338,220.158 338.5,220.5C 338.158,219.662 337.492,219.328 336.5,219.5C 338.104,213.797 339.437,208.13 340.5,202.5C 341.644,203.183 341.644,202.849 340.5,201.5C 340.552,197.802 340.886,194.135 341.5,190.5 Z"/></g>
<g><path style="opacity:0.749" fill="#687e83" d="M 331.5,198.5 C 331.665,201.518 331.498,204.518 331,207.5C 330.722,208.416 330.222,209.082 329.5,209.5C 328.906,205.693 329.573,202.027 331.5,198.5 Z"/></g>
<g><path style="opacity:0.014" fill="#383e3f" d="M 77.5,206.5 C 79.68,205.206 81.68,205.539 83.5,207.5C 81.5,207.167 79.5,206.833 77.5,206.5 Z"/></g>
<g><path style="opacity:0.999" fill="#a9dfec" d="M 77.5,206.5 C 79.5,206.833 81.5,207.167 83.5,207.5C 83.5,227.5 83.5,247.5 83.5,267.5C 83.5,269.167 83.5,270.833 83.5,272.5C 82.7051,276.785 82.3718,281.119 82.5,285.5C 91.1667,285.5 99.8333,285.5 108.5,285.5C 109.478,285.811 110.145,286.478 110.5,287.5C 109.926,289.059 109.26,290.559 108.5,292C 96.6739,293.574 85.0073,293.574 73.5,292C 73,291.5 72.5,291 72,290.5C 73.6654,265.376 73.832,240.209 72.5,215C 72.6667,212.833 72.8333,210.667 73,208.5C 74.1096,206.963 75.6096,206.297 77.5,206.5 Z"/></g>
<g><path style="opacity:1" fill="#a6dae7" d="M 271.5,219.5 C 272.132,223.702 273.132,227.702 274.5,231.5C 274.5,232.167 274.5,232.833 274.5,233.5C 274.61,242.854 274.277,252.188 273.5,261.5C 272.606,286.24 260.272,295.407 236.5,289C 231.123,285.957 227.623,281.457 226,275.5C 222.306,257.577 223.306,239.91 229,222.5C 236.817,206.226 248.983,202.06 265.5,210C 268.98,212.297 270.98,215.464 271.5,219.5 Z M 263.5,232.5 C 263.496,240.205 263.496,247.872 263.5,255.5C 263.085,259.83 262.085,263.997 260.5,268C 260.451,272.84 259.118,277.507 256.5,282C 254.807,282.847 253.14,283.68 251.5,284.5C 248.833,285.833 246.167,285.833 243.5,284.5C 238.598,279.626 236.098,273.626 236,266.5C 235.333,255.5 235.333,244.5 236,233.5C 236.286,224.411 240.453,217.911 248.5,214C 253.814,212.74 257.647,214.574 260,219.5C 261.015,223.895 262.182,228.229 263.5,232.5 Z"/></g>
<g><path style="opacity:0.999" fill="#aadfec" d="M 134.5,211.5 C 133.167,211.5 131.833,211.5 130.5,211.5C 130.5,212.833 130.5,214.167 130.5,215.5C 130.5,217.167 130.5,218.833 130.5,220.5C 129.553,229.78 129.22,239.114 129.5,248.5C 129.5,254.833 129.5,261.167 129.5,267.5C 128.509,273.979 128.176,280.646 128.5,287.5C 129.5,287.5 130.5,287.5 131.5,287.5C 132.828,288.91 132.495,290.076 130.5,291C 125.5,291.667 120.5,291.667 115.5,291C 113.505,290.076 113.172,288.91 114.5,287.5C 115.833,287.5 117.167,287.5 118.5,287.5C 118.5,281.833 118.5,276.167 118.5,270.5C 118.438,255.489 118.771,240.489 119.5,225.5C 120.486,221.03 120.819,216.363 120.5,211.5C 119.167,211.5 117.833,211.5 116.5,211.5C 113.174,211.033 112.841,209.866 115.5,208C 121.833,207.333 128.167,207.333 134.5,208C 135.791,209.292 135.791,210.458 134.5,211.5 Z"/></g>
<g><path style="opacity:1" fill="#a8ddea" d="M 188.5,232.5 C 189.906,232.027 190.573,231.027 190.5,229.5C 194.188,222.301 198.521,215.468 203.5,209C 206.429,208.223 209.263,208.39 212,209.5C 212.211,215.218 212.711,220.885 213.5,226.5C 212.844,247.798 212.177,269.131 211.5,290.5C 208.697,291.776 206.03,291.776 203.5,290.5C 202.844,270.231 202.178,249.898 201.5,229.5C 200.575,230.357 199.908,231.357 199.5,232.5C 194.357,241.445 189.19,250.445 184,259.5C 183.329,260.252 182.496,260.586 181.5,260.5C 179.167,260.5 176.833,260.5 174.5,260.5C 172.926,260.063 171.759,259.063 171,257.5C 166.392,249.27 161.559,241.27 156.5,233.5C 156.5,232.833 156.5,232.167 156.5,231.5C 156.013,230.527 155.513,229.527 155,228.5C 154.172,244.672 154.339,260.672 155.5,276.5C 155.8,281.099 155.467,285.599 154.5,290C 149.34,292.827 145.673,291.66 143.5,286.5C 143.613,261.18 143.78,235.846 144,210.5C 147.945,206.786 151.945,206.786 156,210.5C 163.164,223.499 170.831,236.166 179,248.5C 181.941,242.938 185.108,237.605 188.5,232.5 Z"/></g>
<g><path style="opacity:0.62" fill="#7e9fa7" d="M 347.5,202.5 C 347.247,206.04 346.581,209.373 345.5,212.5C 344.004,208.822 344.671,205.489 347.5,202.5 Z"/></g>
<g><path style="opacity:0.382" fill="#4a565a" d="M 134.5,211.5 C 133.791,212.404 132.791,212.737 131.5,212.5C 131.737,213.791 131.404,214.791 130.5,215.5C 130.5,214.167 130.5,212.833 130.5,211.5C 131.833,211.5 133.167,211.5 134.5,211.5 Z"/></g>
<g><path style="opacity:0.659" fill="#728e95" d="M 345.5,215.5 C 344.632,219.314 343.632,222.981 342.5,226.5C 341.511,222.079 342.011,217.746 344,213.5C 344.278,214.416 344.778,215.082 345.5,215.5 Z"/></g>
<g><path style="opacity:0.627" fill="#6e8a91" d="M 116.5,211.5 C 117.833,211.5 119.167,211.5 120.5,211.5C 120.819,216.363 120.486,221.03 119.5,225.5C 119.5,221.167 119.5,216.833 119.5,212.5C 118.209,212.737 117.209,212.404 116.5,211.5 Z"/></g>
<g><path style="opacity:0.784" fill="#6f8990" d="M 271.5,219.5 C 273.692,223.098 274.692,227.098 274.5,231.5C 273.132,227.702 272.132,223.702 271.5,219.5 Z"/></g>
<g><path style="opacity:0.664" fill="#5b6f74" d="M 83.5,207.5 C 86.1378,227.501 86.1378,247.501 83.5,267.5C 83.5,247.5 83.5,227.5 83.5,207.5 Z"/></g>
<g><path style="opacity:0.649" fill="#7b9da5" d="M 203.5,290.5 C 202.167,271.167 200.833,251.833 199.5,232.5C 199.908,231.357 200.575,230.357 201.5,229.5C 202.178,249.898 202.844,270.231 203.5,290.5 Z"/></g>
<g><path style="opacity:0.369" fill="#5c7075" d="M 190.5,229.5 C 190.573,231.027 189.906,232.027 188.5,232.5C 188.427,230.973 189.094,229.973 190.5,229.5 Z"/></g>
<g><path style="opacity:0.395" fill="#596b70" d="M 130.5,220.5 C 131.147,221.274 131.48,222.274 131.5,223.5C 130.922,231.991 130.256,240.324 129.5,248.5C 129.22,239.114 129.553,229.78 130.5,220.5 Z"/></g>
<g><path style="opacity:0.157" fill="#42494b" d="M 274.5,233.5 C 275.165,236.984 275.499,240.651 275.5,244.5C 275.651,250.409 274.984,256.075 273.5,261.5C 274.277,252.188 274.61,242.854 274.5,233.5 Z"/></g>
<g><path style="opacity:0.126" fill="#444f52" d="M 156.5,231.5 C 155.167,232.167 155.167,232.833 156.5,233.5C 155.518,247.755 155.184,262.088 155.5,276.5C 154.339,260.672 154.172,244.672 155,228.5C 155.513,229.527 156.013,230.527 156.5,231.5 Z"/></g>
<g><path style="opacity:0.358" fill="#61777c" d="M 263.5,232.5 C 264.812,240.068 264.812,247.735 263.5,255.5C 263.496,247.872 263.496,240.205 263.5,232.5 Z"/></g>
<g><path style="opacity:0.082" fill="#353d3e" d="M 14.5,250.5 C 13.475,250.103 13.3083,249.437 14,248.5C 14.4643,249.094 14.631,249.761 14.5,250.5 Z"/></g>
<g><path style="opacity:0.212" fill="#58696d" d="M 314.5,254.5 C 314.573,256.027 313.906,257.027 312.5,257.5C 312.427,255.973 313.094,254.973 314.5,254.5 Z"/></g>
<g><path style="opacity:0.916" fill="#739198" d="M 174.5,260.5 C 176.833,260.5 179.167,260.5 181.5,260.5C 179.167,263.167 176.833,263.167 174.5,260.5 Z"/></g>
<g><path style="opacity:0.624" fill="#6e888f" d="M 336.5,228.5 C 332.63,245.267 325.63,260.934 315.5,275.5C 313.737,278.02 311.737,280.353 309.5,282.5C 308.833,282.5 308.5,282.167 308.5,281.5C 309.167,281.5 309.5,281.167 309.5,280.5C 310.167,280.5 310.5,280.167 310.5,279.5C 311.338,279.158 311.672,278.492 311.5,277.5C 312.167,277.5 312.5,277.167 312.5,276.5C 313.833,276.167 313.833,275.833 312.5,275.5C 312.5,274.833 312.833,274.5 313.5,274.5C 314.167,274.5 314.5,274.167 314.5,273.5C 315.338,273.158 315.672,272.492 315.5,271.5C 316.833,271.167 316.833,270.833 315.5,270.5C 316.092,267.309 317.259,264.309 319,261.5C 321.608,256.603 324.441,251.937 327.5,247.5C 327.833,250.167 328.167,250.167 328.5,247.5C 329.338,247.158 329.672,246.492 329.5,245.5C 330.833,244.5 330.833,243.5 329.5,242.5C 329.882,238.668 331.215,235.335 333.5,232.5C 333.833,235.167 334.167,235.167 334.5,232.5C 335.167,231.167 335.833,229.833 336.5,228.5 Z M 321.5,261.5 C 323.749,259.669 324.915,257.336 325,254.5C 323.295,256.577 322.128,258.91 321.5,261.5 Z"/></g>
<g><path style="opacity:0.024" fill="#323536" d="M 129.5,267.5 C 128.934,274.451 129.601,281.118 131.5,287.5C 130.5,287.5 129.5,287.5 128.5,287.5C 128.176,280.646 128.509,273.979 129.5,267.5 Z"/></g>
<g><path style="opacity:0.515" fill="#5f767b" d="M 118.5,270.5 C 118.5,276.167 118.5,281.833 118.5,287.5C 117.167,287.5 115.833,287.5 114.5,287.5C 115.209,286.596 116.209,286.263 117.5,286.5C 117.179,280.974 117.512,275.64 118.5,270.5 Z"/></g>
<g><path style="opacity:0.375" fill="#5b7176" d="M 83.5,272.5 C 84.2264,276.321 84.2264,280.321 83.5,284.5C 92.0168,284.174 100.35,284.507 108.5,285.5C 99.8333,285.5 91.1667,285.5 82.5,285.5C 82.3718,281.119 82.7051,276.785 83.5,272.5 Z"/></g>
<g><path style="opacity:0.927" fill="#6f8a90" d="M 243.5,284.5 C 246.167,285.833 248.833,285.833 251.5,284.5C 248.833,287.167 246.167,287.167 243.5,284.5 Z"/></g>
<g><path style="opacity:0.086" fill="#444d4f" d="M 294.5,284.5 C 293.833,285.833 292.833,286.833 291.5,287.5C 291.5,285.5 292.5,284.5 294.5,284.5 Z"/></g>
<g><path style="opacity:0.033" fill="#333536" d="M 297.5,285.5 C 297.5,285.833 297.5,286.167 297.5,286.5C 296.551,288.777 295.218,290.777 293.5,292.5C 293.672,291.508 293.338,290.842 292.5,290.5C 293.833,288.5 295.5,286.833 297.5,285.5 Z"/></g>
<g><path style="opacity:0.184" fill="#475154" d="M 291.5,287.5 C 290.772,289.735 289.439,291.568 287.5,293C 289.435,292.942 291.102,292.109 292.5,290.5C 292.5,291.167 292.5,291.833 292.5,292.5C 291.167,292.833 291.167,293.167 292.5,293.5C 291.5,295.167 290.167,296.5 288.5,297.5C 288.189,296.522 287.522,295.855 286.5,295.5C 285.828,296.949 285.161,298.282 284.5,299.5C 284.5,296.833 284.5,294.167 284.5,291.5C 286.553,289.803 288.887,288.469 291.5,287.5 Z"/></g>
<g><path style="opacity:0.667" fill="#5c7278" d="M 14.5,250.5 C 24.5929,268.333 36.4262,285 50,300.5C 56.5309,305.667 62.6975,311.167 68.5,317C 75.4051,321.275 82.0718,325.775 88.5,330.5C 54.5322,312.529 29.8655,285.862 14.5,250.5 Z"/></g>
<g><path style="opacity:0.365" fill="#5c6f7c" d="M 282.5,295.5 C 283.167,299.5 281.5,301.167 277.5,300.5C 278.422,298.184 280.089,296.517 282.5,295.5 Z"/></g>
<g><path style="opacity:0.443" fill="#637a7f" d="M 273.5,302.5 C 274.167,302.5 274.833,302.5 275.5,302.5C 274.452,304.933 273.786,304.933 273.5,302.5 Z"/></g>
<g><path style="opacity:0.09" fill="#414d50" d="M 69.5,310.5 C 70.525,310.897 70.6917,311.563 70,312.5C 69.5357,311.906 69.369,311.239 69.5,310.5 Z"/></g>
<g><path style="opacity:0.251" fill="#465658" d="M 72.5,313.5 C 71.8333,312.167 71.8333,312.167 72.5,313.5 Z"/></g>
<g><path style="opacity:0.071" fill="#353d3e" d="M 72.5,313.5 C 73.4916,313.328 74.1583,313.662 74.5,314.5C 73.5084,314.672 72.8417,314.338 72.5,313.5 Z"/></g>
<g><path style="opacity:0.118" fill="#414d50" d="M 74.5,314.5 C 75.525,314.897 75.6917,315.563 75,316.5C 74.5357,315.906 74.369,315.239 74.5,314.5 Z"/></g>
<g><path style="opacity:0.263" fill="#475759" d="M 92.5,317.5 C 91.8333,316.167 91.8333,316.167 92.5,317.5 Z"/></g>
<g><path style="opacity:0.133" fill="#3c4648" d="M 79.5,318.5 C 78.325,318.719 77.325,318.386 76.5,317.5C 77.8595,316.335 78.8595,316.668 79.5,318.5 Z"/></g>
<g><path style="opacity:0.123" fill="#394243" d="M 92.5,317.5 C 93.9217,317.709 95.255,318.209 96.5,319C 94.6476,319.773 93.3143,319.273 92.5,317.5 Z"/></g>
<g><path style="opacity:0.318" fill="#455255" d="M 79.5,318.5 C 81.4341,319.11 83.1007,320.11 84.5,321.5C 82.0672,321.727 80.4006,320.727 79.5,318.5 Z"/></g>
<g><path style="opacity:0.118" fill="#373f3f" d="M 98.5,320.5 C 99.8333,321.167 99.8333,321.167 98.5,320.5 Z"/></g>
<g><path style="opacity:0.306" fill="#475759" d="M 101.5,322.5 C 100.833,321.167 100.833,321.167 101.5,322.5 Z"/></g>
<g><path style="opacity:0.324" fill="#48575a" d="M 101.5,322.5 C 102.239,322.369 102.906,322.536 103.5,323C 102.563,323.692 101.897,323.525 101.5,322.5 Z"/></g>
<g><path style="opacity:0.082" fill="#363e3e" d="M 104.5,323.5 C 105.833,324.167 105.833,324.167 104.5,323.5 Z"/></g>
<g><path style="opacity:0.971" fill="#91bbc6" d="M 315.5,275.5 C 316.478,275.811 317.145,276.478 317.5,277.5C 314.074,283.095 310.074,288.262 305.5,293C 306.252,293.671 306.586,294.504 306.5,295.5C 270.892,336.526 226.559,356.526 173.5,355.5C 175.117,354.962 176.784,354.629 178.5,354.5C 179.5,354.5 180.5,354.5 181.5,354.5C 181.833,354.5 182.167,354.5 182.5,354.5C 183.167,354.5 183.833,354.5 184.5,354.5C 187.839,354.11 191.173,353.61 194.5,353C 191.635,352.817 188.969,352.317 186.5,351.5C 187.833,351.5 189.167,351.5 190.5,351.5C 193.779,350.508 197.112,350.341 200.5,351C 197.063,351.649 196.896,352.149 200,352.5C 202.185,352.079 204.351,351.579 206.5,351C 204.833,350.667 203.167,350.333 201.5,350C 203.058,349.79 204.391,349.29 205.5,348.5C 205.833,348.5 206.167,348.5 206.5,348.5C 206.833,348.5 207.167,348.5 207.5,348.5C 207.833,348.5 208.167,348.5 208.5,348.5C 209.167,348.5 209.5,348.167 209.5,347.5C 210.167,347.5 210.833,347.5 211.5,347.5C 212.492,347.672 213.158,347.338 213.5,346.5C 214.5,346.5 215.5,346.5 216.5,346.5C 217.167,346.5 217.5,346.167 217.5,345.5C 218.791,345.737 219.791,345.404 220.5,344.5C 237.201,339.815 252.534,332.481 266.5,322.5C 283.351,311.986 297.684,298.653 309.5,282.5C 311.737,280.353 313.737,278.02 315.5,275.5 Z"/></g>
<g><path style="opacity:0.376" fill="#5d7075" d="M 302.5,294.5 C 303.525,294.897 303.692,295.563 303,296.5C 301.667,297.833 300.333,299.167 299,300.5C 298.333,299.833 298.333,299.167 299,298.5C 300.376,297.295 301.542,295.962 302.5,294.5 Z"/></g>
<g><path style="opacity:0.259" fill="#475759" d="M 88.5,330.5 C 89.1667,330.5 89.5,330.833 89.5,331.5C 89.1667,331.167 88.8333,330.833 88.5,330.5 Z"/></g>
<g><path style="opacity:0.443" fill="#4e6063" d="M 89.5,331.5 C 90.7562,331.461 91.7562,331.961 92.5,333C 91.0024,333.585 90.0024,333.085 89.5,331.5 Z"/></g>
<g><path style="opacity:0.282" fill="#4d5c60" d="M 220.5,332.5 C 223.937,330.632 227.604,329.466 231.5,329C 228.14,331.064 224.474,332.231 220.5,332.5 Z"/></g>
<g><path style="opacity:0.302" fill="#4b5a5d" d="M 220.5,332.5 C 219.833,333.167 219.833,333.167 220.5,332.5 Z"/></g>
<g><path style="opacity:0.071" fill="#353d3e" d="M 95.5,334.5 C 94.8333,333.167 94.8333,333.167 95.5,334.5 Z"/></g>
<g><path style="opacity:0.094" fill="#3a4243" d="M 216.5,333.5 C 217.833,334.167 217.833,334.167 216.5,333.5 Z"/></g>
<g><path style="opacity:0.086" fill="#363e3e" d="M 95.5,334.5 C 96.4916,334.328 97.1583,334.662 97.5,335.5C 96.5084,335.672 95.8417,335.338 95.5,334.5 Z"/></g>
<g><path style="opacity:0.069" fill="#363e3e" d="M 97.5,335.5 C 98.4916,335.328 99.1583,335.662 99.5,336.5C 98.5084,336.672 97.8417,336.338 97.5,335.5 Z"/></g>
<g><path style="opacity:0.369" fill="#546569" d="M 252.5,325.5 C 252.611,326.117 252.944,326.617 253.5,327C 251.33,328.586 248.996,329.92 246.5,331C 247.094,331.464 247.761,331.631 248.5,331.5C 244.11,334.077 239.443,336.077 234.5,337.5C 240.699,334.048 246.699,330.048 252.5,325.5 Z"/></g>
<g><path style="opacity:0.065" fill="#363e3e" d="M 99.5,336.5 C 100.492,336.328 101.158,336.662 101.5,337.5C 100.508,337.672 99.8417,337.338 99.5,336.5 Z"/></g>
<g><path style="opacity:0.22" fill="#4c5b5e" d="M 234.5,337.5 C 233.833,338.167 233.833,338.167 234.5,337.5 Z"/></g>
<g><path style="opacity:0.086" fill="#3f4a4c" d="M 101.5,337.5 C 103.819,337.992 105.819,338.992 107.5,340.5C 104.911,340.539 102.911,339.539 101.5,337.5 Z"/></g>
<g><path style="opacity:0.276" fill="#49575a" d="M 84.5,321.5 C 102.016,331.923 120.682,339.59 140.5,344.5C 138.07,344.461 135.57,344.461 133,344.5C 131.433,342.832 129.766,342.498 128,343.5C 126.235,342.554 124.402,341.554 122.5,340.5C 121.158,341.902 120.324,341.569 120,339.5C 119.586,339.957 119.086,340.291 118.5,340.5C 114.32,339.15 110.486,337.15 107,334.5C 106.586,334.957 106.086,335.291 105.5,335.5C 101.162,333.424 97.3288,331.424 94,329.5C 90.0341,327.694 86.8674,325.028 84.5,321.5 Z"/></g>
<g><path style="opacity:0.075" fill="#394142" d="M 180.5,338.5 C 181.833,339.167 181.833,339.167 180.5,338.5 Z"/></g>
<g><path style="opacity:0.494" fill="#465254" d="M 173.5,338.5 C 175.655,338.372 177.655,338.872 179.5,340C 176.167,340.667 172.833,340.667 169.5,340C 171.058,339.79 172.391,339.29 173.5,338.5 Z"/></g>
<g><path style="opacity:0.008" fill="#292a29" d="M 222.5,341.5 C 223.833,342.167 223.833,342.167 222.5,341.5 Z"/></g>
<g><path style="opacity:0.282" fill="#516166" d="M 220.5,343.5 C 220.842,342.662 221.508,342.328 222.5,342.5C 222.158,343.338 221.492,343.672 220.5,343.5 Z"/></g>
<g><path style="opacity:0.176" fill="#465155" d="M 220.5,343.5 C 220.5,343.833 220.5,344.167 220.5,344.5C 217.833,344.167 217.833,343.833 220.5,343.5 Z"/></g>
<g><path style="opacity:0.322" fill="#434f52" d="M 141.5,345.5 C 141.897,344.475 142.563,344.308 143.5,345C 142.906,345.464 142.239,345.631 141.5,345.5 Z"/></g>
<g><path style="opacity:0.104" fill="#383f40" d="M 144.5,344.5 C 145.525,344.897 145.692,345.563 145,346.5C 144.536,345.906 144.369,345.239 144.5,344.5 Z"/></g>
<g><path style="opacity:0.173" fill="#455053" d="M 217.5,345.5 C 217.5,346.167 217.167,346.5 216.5,346.5C 215.791,345.596 214.791,345.263 213.5,345.5C 215.032,343.219 216.366,343.219 217.5,345.5 Z"/></g>
<g><path style="opacity:0.131" fill="#3d4749" d="M 152.5,346.5 C 150.473,346.662 148.473,346.495 146.5,346C 148.712,345.211 150.712,345.378 152.5,346.5 Z"/></g>
<g><path style="opacity:0.186" fill="#404a4c" d="M 213.5,345.5 C 213.5,345.833 213.5,346.167 213.5,346.5C 213.158,347.338 212.492,347.672 211.5,347.5C 210.167,344.833 210.833,344.167 213.5,345.5 Z"/></g>
<g><path style="opacity:0.11" fill="#374040" d="M 152.5,346.5 C 153.552,346.351 154.552,346.517 155.5,347C 154.251,347.74 153.251,347.573 152.5,346.5 Z"/></g>
<g><path style="opacity:0.447" fill="#56696e" d="M 107.5,340.5 C 117.451,343.761 127.451,346.928 137.5,350C 126.669,349.333 116.669,346.167 107.5,340.5 Z"/></g>
<g><path style="opacity:0.098" fill="#3c4446" d="M 142.5,350.5 C 141.448,350.649 140.448,350.483 139.5,350C 140.749,349.26 141.749,349.427 142.5,350.5 Z"/></g>
<g><path style="opacity:0.251" fill="#414b4d" d="M 209.5,347.5 C 209.5,348.167 209.167,348.5 208.5,348.5C 208.167,347.167 207.833,347.167 207.5,348.5C 207.167,348.5 206.833,348.5 206.5,348.5C 205.151,347.356 204.817,347.356 205.5,348.5C 204.391,349.29 203.058,349.79 201.5,350C 203.167,350.333 204.833,350.667 206.5,351C 204.351,351.579 202.185,352.079 200,352.5C 196.896,352.149 197.063,351.649 200.5,351C 197.112,350.341 193.779,350.508 190.5,351.5C 184.355,350.51 178.022,350.177 171.5,350.5C 167.818,350.665 164.152,350.499 160.5,350C 176.082,349.279 191.582,347.779 207,345.5C 208.376,345.684 209.209,346.351 209.5,347.5 Z"/></g>
<g><path style="opacity:0.258" fill="#4a585b" d="M 142.5,350.5 C 150.014,350.796 157.347,351.462 164.5,352.5C 162.901,352.232 161.568,352.566 160.5,353.5C 154.302,352.929 148.302,351.929 142.5,350.5 Z"/></g>
<g><path style="opacity:0.079" fill="#2d2f2f" d="M 171.5,350.5 C 178.022,350.177 184.355,350.51 190.5,351.5C 189.167,351.5 187.833,351.5 186.5,351.5C 183.119,351.46 179.786,351.793 176.5,352.5C 174.833,351.833 173.167,351.167 171.5,350.5 Z"/></g>
<g><path style="opacity:0.493" fill="#60767c" d="M 186.5,351.5 C 188.969,352.317 191.635,352.817 194.5,353C 191.173,353.61 187.839,354.11 184.5,354.5C 183.833,353.167 183.167,353.167 182.5,354.5C 182.167,354.5 181.833,354.5 181.5,354.5C 180.791,353.596 179.791,353.263 178.5,353.5C 173.167,353.5 167.833,353.5 162.5,353.5C 161.833,353.5 161.167,353.5 160.5,353.5C 161.568,352.566 162.901,352.232 164.5,352.5C 168.5,352.5 172.5,352.5 176.5,352.5C 179.786,351.793 183.119,351.46 186.5,351.5 Z"/></g>
<g><path style="opacity:0.025" fill="#282929" d="M 162.5,353.5 C 167.833,353.5 173.167,353.5 178.5,353.5C 178.5,353.833 178.5,354.167 178.5,354.5C 176.784,354.629 175.117,354.962 173.5,355.5C 169.833,354.833 166.167,354.167 162.5,353.5 Z"/></g>
</svg>
